<?xml version="1.0"?>
<svg xmlns="http://www.w3.org/2000/svg" xmlns:lc="https://librecad.org" xmlns:xlink="http://www.w3.org/1999/xlink" width="133.68mm" height="91.88mm" viewBox="0 0 133.68 91.88">
    <g lc:layername="0" lc:is_locked="false" lc:is_construction="false" fill="none" stroke="black" stroke-width="0.1"/>
    <g lc:layername="outline" lc:is_locked="true" lc:is_construction="false" fill="none" stroke="black" stroke-width="0.1">
        <line x1="118.5" y1="91.88" x2="119.73" y2="91.65"/>
        <path d="M55.99981046,63.65529933 A1,1 0 0,0 55.19586326,63.25 "/>
        <line x1="55.99981046" y1="63.65529933" x2="66.25306792" y2="77.51618441"/>
        <path d="M66.25306792,77.51618441 A1,1 0 0,0 66.9107556,77.91072999 "/>
        <line x1="66.9107556" y1="77.91072999" x2="103.51176682" y2="83.32216983"/>
        <line x1="103.86485805" y1="83.44501616" x2="118.5" y2="91.88"/>
        <path d="M103.86485805,83.44501616 A1,1 0 0,0 103.51176682,83.32216983 "/>
        <line x1="119.73" y1="91.65" x2="133.5472531" y2="67.58123654"/>
        <path d="M133.5472531,67.58123654 A1,1 0 0,0 133.68,67.08336902 "/>
        <line x1="133.68" y1="8" x2="133.68" y2="67.08336902"/>
        <path d="M133.68,8 A1,1 0 0,0 132.68,7 "/>
        <line x1="114" y1="7" x2="132.68" y2="7"/>
        <path d="M113,6 A1,1 0 0,0 114,7 "/>
        <line x1="113" y1="5.75" x2="113" y2="6"/>
        <path d="M113,5.75 A1,1 0 0,0 112,4.75 "/>
        <line x1="95" y1="4.75" x2="112" y2="4.75"/>
        <path d="M94,3.75 A1,1 0 0,0 95,4.75 "/>
        <line x1="94" y1="3.25" x2="94" y2="3.75"/>
        <path d="M94,3.25 A1,1 0 0,0 93,2.25 "/>
        <line x1="76" y1="2.25" x2="93" y2="2.25"/>
        <path d="M75,1.25 A1,1 0 0,0 76,2.25 "/>
        <line x1="75" y1="1" x2="75" y2="1.25"/>
        <path d="M75,1 A1,1 0 0,0 74,0 "/>
        <line x1="58" y1="0" x2="74" y2="0"/>
        <path d="M58,0 A1,1 0 0,0 57,1 "/>
        <line x1="57" y1="1.25" x2="57" y2="1"/>
        <path d="M56,2.25 A1,1 0 0,0 57,1.25 "/>
        <line x1="39" y1="2.25" x2="56" y2="2.25"/>
        <path d="M39,2.25 A1,1 0 0,0 38,3.25 "/>
        <line x1="38" y1="6" x2="38" y2="3.25"/>
        <path d="M37,7 A1,1 0 0,0 38,6 "/>
        <line x1="1" y1="7" x2="37" y2="7"/>
        <path d="M1,7 A1,1 0 0,0 0,8 "/>
        <line x1="1" y1="63.25" x2="55.19586326" y2="63.25"/>
        <line x1="0" y1="8" x2="0" y2="62.25"/>
        <path d="M0,62.25 A1,1 0 0,0 1,63.25 "/>
    </g>
</svg>
