<?xml version="1.0"?>
<svg xmlns="http://www.w3.org/2000/svg" xmlns:lc="https://librecad.org" xmlns:xlink="http://www.w3.org/1999/xlink" width="107.21276815mm" height="70.72793566mm" viewBox="0 0 107.21276815 70.72793566">
    <g lc:layername="led-intersections" lc:is_locked="true" lc:is_construction="false" fill="none" stroke="black" stroke-width="0.1">
        <line x1="0" y1="7" x2="1.6" y2="8.6"/>
        <line x1="19" y1="7" x2="20.6" y2="8.6"/>
        <line x1="38" y1="2.25" x2="39.6" y2="3.85"/>
        <line x1="57" y1="0" x2="58.6" y2="1.6"/>
        <line x1="76" y1="2.25" x2="77.6" y2="3.85"/>
        <line x1="95" y1="4.75" x2="96.6" y2="6.35"/>
        <line x1="1.6" y1="7" x2="0" y2="8.6"/>
        <line x1="20.6" y1="7" x2="19" y2="8.6"/>
        <line x1="39.6" y1="2.25" x2="38" y2="3.85"/>
        <line x1="58.6" y1="0" x2="57" y2="1.6"/>
        <line x1="77.6" y1="2.25" x2="76" y2="3.85"/>
        <line x1="96.6" y1="4.75" x2="95" y2="6.35"/>
        <line x1="0" y1="26.05" x2="1.6" y2="27.65"/>
        <line x1="19" y1="26.05" x2="20.6" y2="27.65"/>
        <line x1="38" y1="21.3" x2="39.6" y2="22.9"/>
        <line x1="57" y1="19.05" x2="58.6" y2="20.65"/>
        <line x1="76" y1="21.3" x2="77.6" y2="22.9"/>
        <line x1="95" y1="23.8" x2="96.6" y2="25.4"/>
        <line x1="1.6" y1="26.05" x2="0" y2="27.65"/>
        <line x1="20.6" y1="26.05" x2="19" y2="27.65"/>
        <line x1="39.6" y1="21.3" x2="38" y2="22.9"/>
        <line x1="58.6" y1="19.05" x2="57" y2="20.65"/>
        <line x1="77.6" y1="21.3" x2="76" y2="22.9"/>
        <line x1="96.6" y1="23.8" x2="95" y2="25.4"/>
        <line x1="0" y1="45.1" x2="1.6" y2="46.7"/>
        <line x1="19" y1="45.1" x2="20.6" y2="46.7"/>
        <line x1="38" y1="40.35" x2="39.6" y2="41.95"/>
        <line x1="57" y1="38.1" x2="58.6" y2="39.7"/>
        <line x1="76" y1="40.35" x2="77.6" y2="41.95"/>
        <line x1="95" y1="42.85" x2="96.6" y2="44.45"/>
        <line x1="1.6" y1="45.1" x2="0" y2="46.7"/>
        <line x1="20.6" y1="45.1" x2="19" y2="46.7"/>
        <line x1="39.6" y1="40.35" x2="38" y2="41.95"/>
        <line x1="58.6" y1="38.1" x2="57" y2="39.7"/>
        <line x1="77.6" y1="40.35" x2="76" y2="41.95"/>
        <line x1="96.6" y1="42.85" x2="95" y2="44.45"/>
        <line x1="66.44" y1="59.815" x2="68.04" y2="61.415"/>
        <line x1="68.04" y1="59.815" x2="66.44" y2="61.415"/>
        <line x1="89.07785905" y1="62.57030221" x2="90.17675723" y2="64.54828674"/>
        <line x1="90.61630041" y1="63.00984539" x2="88.63831588" y2="64.10874357"/>
        <line x1="105.82808633" y1="68.54159539" x2="106.4111097" y2="70.72793566"/>
        <line x1="107.21276815" y1="69.34325384" x2="105.02642788" y2="69.92627721"/>
    </g>
    <g lc:layername="led-grid" lc:is_locked="false" lc:is_construction="false" fill="none" stroke="black" stroke-width="0.1">
        <line x1="0.8" y1="7.8" x2="19.8" y2="7.8"/>
        <line x1="19.8" y1="7.8" x2="38.8" y2="3.05"/>
        <line x1="38.8" y1="3.05" x2="57.8" y2="0.8"/>
        <line x1="57.8" y1="0.8" x2="76.8" y2="3.05"/>
        <line x1="76.8" y1="3.05" x2="95.8" y2="5.55"/>
        <line x1="0.8" y1="26.85" x2="19.8" y2="26.85"/>
        <line x1="19.8" y1="26.85" x2="38.8" y2="22.1"/>
        <line x1="38.8" y1="22.1" x2="57.8" y2="19.85"/>
        <line x1="57.8" y1="19.85" x2="76.8" y2="22.1"/>
        <line x1="76.8" y1="22.1" x2="95.8" y2="24.6"/>
        <line x1="0.8" y1="45.9" x2="19.8" y2="45.9"/>
        <line x1="19.8" y1="45.9" x2="38.8" y2="41.15"/>
        <line x1="38.8" y1="41.15" x2="57.8" y2="38.9"/>
        <line x1="57.8" y1="38.9" x2="76.8" y2="41.15"/>
        <line x1="76.8" y1="41.15" x2="95.8" y2="43.65"/>
        <line x1="67.24" y1="60.615" x2="89.62730814" y2="63.55929448"/>
        <line x1="89.62730814" y1="63.55929448" x2="106.11959802" y2="69.63476552"/>
        <line x1="0.8" y1="7.8" x2="0.8" y2="45.9"/>
        <line x1="19.8" y1="7.8" x2="19.8" y2="45.9"/>
        <line x1="38.8" y1="3.05" x2="38.8" y2="41.15"/>
        <line x1="57.8" y1="0.8" x2="57.8" y2="38.9"/>
        <line x1="76.8" y1="3.05" x2="76.8" y2="41.15"/>
        <line x1="95.8" y1="5.55" x2="95.8" y2="43.65"/>
        <line x1="95.8" y1="43.65" x2="106.11959802" y2="69.63476552"/>
        <line x1="76.8" y1="41.15" x2="89.62730814" y2="63.55929448"/>
        <line x1="57.8" y1="38.9" x2="67.24" y2="60.615"/>
    </g>
</svg>
