<?xml version="1.0"?>
<svg xmlns="http://www.w3.org/2000/svg" xmlns:lc="https://librecad.org" xmlns:xlink="http://www.w3.org/1999/xlink" width="109.69mm" height="66.315mm" viewBox="0 0 109.69 66.315">
    <g lc:layername="switch-grid" lc:is_locked="true" lc:is_construction="false" fill="none" stroke="black" stroke-width="0.1">
        <line x1="0" y1="7" x2="19" y2="7"/>
        <line x1="19" y1="7" x2="38" y2="2.25"/>
        <line x1="38" y1="2.25" x2="57" y2="0"/>
        <line x1="57" y1="0" x2="76" y2="2.25"/>
        <line x1="76" y1="2.25" x2="95" y2="4.75"/>
        <line x1="95" y1="4.75" x2="95" y2="23.8"/>
        <line x1="95" y1="23.8" x2="76" y2="21.3"/>
        <line x1="76" y1="21.3" x2="57" y2="19.05"/>
        <line x1="57" y1="19.05" x2="38" y2="21.3"/>
        <line x1="38" y1="21.3" x2="19" y2="26.05"/>
        <line x1="19" y1="26.05" x2="0" y2="26.05"/>
        <line x1="0" y1="26.05" x2="0" y2="45.1"/>
        <line x1="0" y1="45.1" x2="19" y2="45.1"/>
        <line x1="19" y1="45.1" x2="38" y2="40.35"/>
        <line x1="38" y1="40.35" x2="57" y2="38.1"/>
        <line x1="57" y1="38.1" x2="76" y2="40.35"/>
        <line x1="76" y1="40.35" x2="95" y2="42.85"/>
        <line x1="95" y1="42.85" x2="95" y2="23.8"/>
        <line x1="57" y1="38.1" x2="57" y2="19.05"/>
        <line x1="57" y1="19.05" x2="57" y2="0"/>
        <line x1="38" y1="2.25" x2="38" y2="21.3"/>
        <line x1="19" y1="7" x2="19" y2="26.05"/>
        <line x1="0" y1="7" x2="0" y2="26.05"/>
        <line x1="19" y1="26.05" x2="19" y2="45.1"/>
        <line x1="38" y1="21.3" x2="38" y2="40.35"/>
        <line x1="76" y1="21.3" x2="76" y2="40.35"/>
        <line x1="66.44" y1="59.815" x2="87.44" y2="62.565"/>
        <line x1="87.44" y1="62.565" x2="109.69" y2="66.315"/>
        <line x1="95" y1="42.85" x2="109.69" y2="66.315"/>
        <line x1="87.44" y1="62.565" x2="76" y2="40.35"/>
        <line x1="66.44" y1="59.815" x2="57" y2="38.1"/>
        <line x1="76" y1="21.3" x2="76" y2="2.25"/>
    </g>
</svg>
